# This file uses centimeters as units for non-parametric coordinates.

mtllib beam.mtl
g default
v 0.095106 0.030902 -1.000000
v 0.080902 0.058779 -1.000000
v 0.058779 0.080902 -1.000000
v 0.030902 0.095106 -1.000000
v 0.000000 0.100000 -1.000000
v -0.030902 0.095106 -1.000000
v -0.058779 0.080902 -1.000000
v -0.080902 0.058779 -1.000000
v -0.095106 0.030902 -1.000000
v -0.100000 -0.000000 -1.000000
v -0.095106 -0.030902 -1.000000
v -0.080902 -0.058779 -1.000000
v -0.058779 -0.080902 -1.000000
v -0.030902 -0.095106 -1.000000
v -0.000000 -0.100000 -1.000000
v 0.030902 -0.095106 -1.000000
v 0.058779 -0.080902 -1.000000
v 0.080902 -0.058779 -1.000000
v 0.095106 -0.030902 -1.000000
v 0.100000 -0.000000 -1.000000
v 0.095106 0.030902 0.000000
v 0.080902 0.058779 0.000000
v 0.058779 0.080902 0.000000
v 0.030902 0.095106 0.000000
v 0.000000 0.100000 0.000000
v -0.030902 0.095106 0.000000
v -0.058779 0.080902 0.000000
v -0.080902 0.058779 0.000000
v -0.095106 0.030902 0.000000
v -0.100000 0.000000 0.000000
v -0.095106 -0.030902 0.000000
v -0.080902 -0.058779 0.000000
v -0.058779 -0.080902 0.000000
v -0.030902 -0.095106 0.000000
v -0.000000 -0.100000 0.000000
v 0.030902 -0.095106 0.000000
v 0.058779 -0.080902 0.000000
v 0.080902 -0.058779 0.000000
v 0.095106 -0.030902 0.000000
v 0.100000 0.000000 0.000000
v 0.000000 -0.000000 -1.000000
v 0.000000 0.000000 0.000000
vt 0.699975 1.000010
vt 0.649953 1.000008
vt 0.650047 0.000008
vt 0.700025 0.000010
vt 0.599936 1.000006
vt 0.600064 0.000006
vt 0.549924 1.000003
vt 0.550076 0.000003
vt 0.499920 1.000000
vt 0.500080 0.000000
vt 0.449924 0.999997
vt 0.450076 -0.000003
vt 0.399936 0.999994
vt 0.400064 -0.000006
vt 0.349953 0.999992
vt 0.350047 -0.000008
vt 0.299975 0.999990
vt 0.300025 -0.000010
vt 0.250000 0.999990
vt 0.250000 -0.000010
vt 0.200025 0.999990
vt 0.199975 -0.000009
vt 0.150047 0.999992
vt 0.149953 -0.000008
vt 0.100064 0.999994
vt 0.099936 -0.000006
vt 0.050076 0.999997
vt 0.049924 -0.000003
vt 0.000080 1.000000
vt 0.949924 0.000003
vt 0.899936 0.000006
vt 0.849953 0.000008
vt 0.799975 0.000010
vt 0.750000 1.000010
vt 0.750000 0.000010
vt 0.250070 1.000000
vt 0.750070 0.000000
vt 1.050076 0.999997
vt 1.000080 1.000000
vt 0.950076 1.000003
vt 0.900064 1.000006
vt 0.850047 1.000008
vt 0.800025 1.000010
vt 1.250070 1.000000
vt 1.750000 1.000010
vt 1.199975 -0.000009
vt 1.149953 -0.000008
vt 1.099936 -0.000006
vt 1.049924 -0.000003
vt 0.999920 0.000000
vn 0.966026 0.258445 0.000000
vn 0.838881 0.544315 0.000000
vn 0.933442 0.358728 0.000000
vn 0.776903 0.629620 0.000000
vn 0.629620 0.776903 0.000000
vn 0.544315 0.838881 0.000000
vn 0.358728 0.933442 0.000000
vn 0.258446 0.966026 0.000000
vn 0.052721 0.998609 0.000000
vn -0.052721 0.998609 0.000000
vn -0.258446 0.966026 0.000000
vn -0.358728 0.933442 0.000000
vn -0.544316 0.838881 0.000000
vn -0.629621 0.776903 0.000000
vn -0.776903 0.629620 0.000000
vn -0.838881 0.544315 0.000000
vn -0.933442 0.358728 0.000000
vn -0.966026 0.258446 0.000000
vn -0.998609 0.052721 0.000000
vn -0.998609 -0.052721 0.000000
vn -0.966026 -0.258446 0.000000
vn -0.933442 -0.358728 0.000000
vn -0.838881 -0.544315 0.000000
vn -0.776903 -0.629620 0.000000
vn -0.629620 -0.776903 0.000000
vn -0.544315 -0.838881 0.000000
vn -0.358728 -0.933442 0.000000
vn -0.258446 -0.966026 0.000000
vn -0.052721 -0.998609 0.000000
vn 0.052722 -0.998609 0.000000
vn 0.258446 -0.966026 0.000000
vn 0.358728 -0.933442 0.000000
vn 0.544315 -0.838881 0.000000
vn 0.629620 -0.776903 0.000000
vn 0.776903 -0.629620 0.000000
vn 0.838881 -0.544315 0.000000
vn 0.933442 -0.358728 0.000000
vn 0.966026 -0.258446 0.000000
vn 0.998609 -0.052722 0.000000
vn 0.998609 0.052720 0.000000
vn 0.000000 0.000000 -1.000000
vn 0.000000 0.000000 -1.000000
vn 0.000000 0.000000 -1.000000
vn 0.000000 0.000000 -1.000000
vn 0.000000 0.000000 -1.000000
vn 0.000000 0.000000 -1.000000
vn 0.000000 0.000000 -1.000000
vn 0.000000 0.000000 -1.000000
vn 0.000000 0.000000 -1.000000
vn 0.000000 0.000000 -1.000000
vn 0.000000 0.000000 -1.000000
vn 0.000000 0.000000 -1.000000
vn 0.000000 0.000000 -1.000000
vn 0.000000 0.000000 -1.000000
vn 0.000000 0.000000 -1.000000
vn 0.000000 0.000000 -1.000000
vn 0.000000 0.000000 -1.000000
vn 0.000000 0.000000 -1.000000
vn 0.000000 0.000000 -1.000000
vn 0.000000 0.000000 -1.000000
vn 0.000000 0.000000 -1.000000
vn 0.000000 0.000000 1.000000
vn 0.000000 0.000000 1.000000
vn 0.000000 0.000000 1.000000
vn 0.000000 0.000000 1.000000
vn 0.000000 0.000000 1.000000
vn 0.000000 0.000000 1.000000
vn 0.000000 0.000000 1.000000
vn 0.000000 0.000000 1.000000
vn 0.000000 0.000000 1.000000
vn 0.000000 0.000000 1.000000
vn 0.000000 0.000000 1.000000
vn 0.000000 0.000000 1.000000
vn 0.000000 0.000000 1.000000
vn 0.000000 0.000000 1.000000
vn 0.000000 0.000000 1.000000
vn 0.000000 0.000000 1.000000
vn 0.000000 0.000000 1.000000
vn 0.000000 0.000000 1.000000
vn 0.000000 0.000000 1.000000
vn 0.000000 0.000000 1.000000
vn 0.000000 0.000000 1.000000
s 1
g pCylinder1
usemtl initialShadingGroup
f 1/1/1 2/2/2 21/4/3
f 21/4/3 2/2/2 22/3/4
f 2/2/2 3/5/5 22/3/4
f 22/3/4 3/5/5 23/6/6
f 3/5/5 4/7/7 23/6/6
f 23/6/6 4/7/7 24/8/8
f 4/7/7 5/9/9 24/8/8
f 24/8/8 5/9/9 25/10/10
f 5/9/9 6/11/11 25/10/10
f 25/10/10 6/11/11 26/12/12
f 6/11/11 7/13/13 26/12/12
f 26/12/12 7/13/13 27/14/14
f 7/13/13 8/15/15 27/14/14
f 27/14/14 8/15/15 28/16/16
f 8/15/15 9/17/17 28/16/16
f 28/16/16 9/17/17 29/18/18
f 9/17/17 10/19/19 29/18/18
f 29/18/18 10/19/19 30/20/20
f 10/19/19 11/21/21 30/20/20
f 30/20/20 11/21/21 31/22/22
f 11/21/21 12/23/23 31/22/22
f 31/22/22 12/23/23 32/24/24
f 12/23/23 13/25/25 32/24/24
f 32/24/24 13/25/25 33/26/26
f 13/25/25 14/27/27 33/26/26
f 33/26/26 14/27/27 34/28/28
f 14/38/27 15/39/29 34/49/28
f 34/49/28 15/39/29 35/50/30
f 15/39/29 16/40/31 35/50/30
f 35/50/30 16/40/31 36/30/32
f 16/40/31 17/41/33 36/30/32
f 36/30/32 17/41/33 37/31/34
f 17/41/33 18/42/35 37/31/34
f 37/31/34 18/42/35 38/32/36
f 18/42/35 19/43/37 38/32/36
f 38/32/36 19/43/37 39/33/38
f 19/43/37 20/34/39 39/33/38
f 39/33/38 20/34/39 40/35/40
f 20/34/39 1/1/1 40/35/40
f 40/35/40 1/1/1 21/4/3
s 2
f 2/2/41 1/1/42 41/36/43
f 3/5/44 2/2/41 41/36/43
f 4/7/45 3/5/44 41/36/43
f 5/9/46 4/7/45 41/36/43
f 6/11/47 5/9/46 41/36/43
f 7/13/48 6/11/47 41/36/43
f 8/15/49 7/13/48 41/36/43
f 9/17/50 8/15/49 41/36/43
f 10/19/51 9/17/50 41/36/43
f 11/21/52 10/19/51 41/36/43
f 12/23/53 11/21/52 41/36/43
f 13/25/54 12/23/53 41/36/43
f 14/27/55 13/25/54 41/36/43
f 15/29/56 14/27/55 41/36/43
f 16/40/57 15/39/56 41/44/43
f 17/41/58 16/40/57 41/44/43
f 18/42/59 17/41/58 41/44/43
f 19/43/60 18/42/59 41/44/43
f 20/45/61 19/43/60 41/44/43
f 1/1/42 20/34/61 41/36/43
s 3
f 21/4/62 22/3/63 42/37/64
f 22/3/63 23/6/65 42/37/64
f 23/6/65 24/8/66 42/37/64
f 24/8/66 25/10/67 42/37/64
f 25/10/67 26/12/68 42/37/64
f 26/12/68 27/14/69 42/37/64
f 27/14/69 28/16/70 42/37/64
f 28/16/70 29/18/71 42/37/64
f 29/18/71 30/20/72 42/37/64
f 30/20/72 31/46/73 42/37/64
f 31/46/73 32/47/74 42/37/64
f 32/47/74 33/48/75 42/37/64
f 33/48/75 34/49/76 42/37/64
f 34/49/76 35/50/77 42/37/64
f 35/50/77 36/30/78 42/37/64
f 36/30/78 37/31/79 42/37/64
f 37/31/79 38/32/80 42/37/64
f 38/32/80 39/33/81 42/37/64
f 39/33/81 40/35/82 42/37/64
f 40/35/82 21/4/62 42/37/64
