# This file uses centimeters as units for non-parametric coordinates.

mtllib LvlBack3.mtl
g default
v 6.000000 2.000000 -6.000000
v 2.000000 -2.000000 -6.000000
v 2.000000 2.000000 -6.000000
v 6.000000 -2.000000 -6.000000
v 2.000000 2.000000 -6.203187
v 6.000000 2.000000 -6.203187
v 2.000000 -2.000000 -6.203187
v 6.000000 -2.000000 -6.203187
vt 0.003415 0.000426
vt 0.996585 0.000426
vt 0.003415 0.993595
vt 0.996585 0.993595
vt 0.003415 0.000426
vt 0.996585 0.000426
vt 0.003415 0.993595
vt 0.996585 0.993595
vt 0.003415 0.000426
vt 0.996585 0.000426
vt 0.003415 0.993595
vt 0.996585 0.993595
vn 0.000000 0.000000 -1.000000
vn 0.000000 0.000000 -1.000000
vn 0.000000 0.000000 -1.000000
vn 0.000000 0.000000 -1.000000
vn 0.000000 0.000000 1.000000
vn 0.000000 0.000000 1.000000
vn 0.000000 0.000000 1.000000
vn 0.000000 0.000000 1.000000
vn 0.000000 1.000000 0.000000
vn 0.000000 1.000000 0.000000
vn 0.000000 1.000000 0.000000
vn 0.000000 1.000000 0.000000
vn -1.000000 0.000000 0.000000
vn -1.000000 0.000000 0.000000
vn -1.000000 0.000000 0.000000
vn -1.000000 0.000000 0.000000
vn 1.000000 0.000000 0.000000
vn 1.000000 0.000000 0.000000
vn 1.000000 0.000000 0.000000
vn 1.000000 0.000000 0.000000
vn 0.000000 -1.000000 0.000000
vn 0.000000 -1.000000 0.000000
vn 0.000000 -1.000000 0.000000
vn 0.000000 -1.000000 0.000000
s 1
g polySurface15 polySurface14 polySurface11 polySurface9 pCube3
usemtl lambert9SG
f 5/9/1 6/10/2 7/11/3
f 7/11/3 6/10/2 8/12/4
s 2
f 3/5/5 2/7/6 1/6/7
f 2/7/6 4/8/8 1/6/7
s off
f 3/1/9 1/2/10 6/10/11 5/9/12
f 2/3/13 3/1/14 5/9/15 7/11/16
f 1/2/17 4/4/18 8/12/19 6/10/20
f 4/4/21 2/3/22 7/11/23 8/12/24
