# This file uses centimeters as units for non-parametric coordinates.

mtllib LvlBack2.mtl
g default
v -2.000000 2.000000 -6.000000
v -2.000000 -2.000000 -6.000000
v 2.000000 2.000000 -6.000000
v -2.000000 -2.000000 -6.000000
v 2.000000 2.000000 -6.000000
v 2.000000 -2.000000 -6.000000
v -2.000000 2.000000 -6.222259
v 2.000000 2.000000 -6.222259
v -2.000000 -2.000000 -6.222259
v 2.000000 2.000000 -6.222259
v -2.000000 -2.000000 -6.222259
v 2.000000 -2.000000 -6.222259
vt 0.003415 0.002730
vt 0.996585 0.002730
vt 0.003415 0.995900
vt 0.003415 0.995900
vt 0.996585 0.002730
vt 0.996585 0.995900
vt 0.003415 0.002730
vt 0.996585 0.002730
vt 0.003415 0.995900
vt 0.003415 0.995900
vt 0.996585 0.002730
vt 0.996585 0.995900
vt 0.003415 0.002730
vt 0.996585 0.002730
vt 0.003415 0.995900
vt 0.003415 0.995900
vt 0.996585 0.002730
vt 0.996585 0.995900
vn 0.000000 0.000000 -1.000000
vn 0.000000 0.000000 -1.000000
vn 0.000000 0.000000 -1.000000
vn 0.000000 0.000000 -1.000000
vn 0.000000 0.000000 -1.000000
vn 0.000000 0.000000 -1.000000
vn 0.000000 0.000000 1.000000
vn 0.000000 0.000000 1.000000
vn 0.000000 0.000000 1.000000
vn 0.000000 0.000000 1.000000
vn 0.000000 0.000000 1.000000
vn 0.000000 0.000000 1.000000
vn 0.000000 1.000000 0.000000
vn 0.000000 1.000000 0.000000
vn 0.000000 1.000000 0.000000
vn 0.000000 1.000000 0.000000
vn 0.707107 -0.707107 0.000000
vn 0.707107 -0.707107 0.000000
vn 0.707107 -0.707107 0.000000
vn 0.707107 -0.707107 0.000000
vn -1.000000 0.000000 0.000000
vn -1.000000 0.000000 0.000000
vn -1.000000 0.000000 0.000000
vn -1.000000 0.000000 0.000000
vn -0.707107 0.707107 0.000000
vn -0.707107 0.707107 0.000000
vn -0.707107 0.707107 0.000000
vn -0.707107 0.707107 0.000000
vn 1.000000 0.000000 0.000000
vn 1.000000 0.000000 0.000000
vn 1.000000 0.000000 0.000000
vn 1.000000 0.000000 0.000000
vn 0.000000 -1.000000 0.000000
vn 0.000000 -1.000000 0.000000
vn 0.000000 -1.000000 0.000000
vn 0.000000 -1.000000 0.000000
s off
g polySurface22
usemtl lambert9SG
f 7/13/1 8/14/2 9/15/3
f 11/16/4 10/17/5 12/18/6
f 1/7/7 2/9/8 3/8/9
f 4/10/10 6/12/11 5/11/12
f 1/1/13 3/2/14 8/14/15 7/13/16
f 3/2/17 2/3/18 9/15/19 8/14/20
f 2/3/21 1/1/22 7/13/23 9/15/24
f 4/4/25 5/5/26 10/17/27 11/16/28
f 5/5/29 6/6/30 12/18/31 10/17/32
f 6/6/33 4/4/34 11/16/35 12/18/36
