# This file uses centimeters as units for non-parametric coordinates.

mtllib LvlBot.mtl
g default
v -1.966755 -1.966755 1.966755
v 1.966755 -1.966755 1.966755
v -1.966755 -1.966755 -1.966755
v 1.966755 -1.966755 -1.966755
vt 0.001886 -0.004801
vt 0.998114 -0.004801
vt 0.001886 0.991427
vt 0.998114 0.991427
vn 0.000000 -1.000000 0.000000
vn 0.000000 -1.000000 0.000000
vn 0.000000 -1.000000 0.000000
vn 0.000000 -1.000000 0.000000
vn 0.000000 -1.000000 0.000000
vn 0.000000 -1.000000 0.000000
s off
g polySurface10 polySurface9 polySurface7 polySurface5 polySurface3 polySurface1
usemtl lambert11SG
f 3/1/1 4/2/2 1/3/3
f 1/3/4 4/2/5 2/4/6
