# This file uses centimeters as units for non-parametric coordinates.

mtllib LvlLft.mtl
g default
v 1.966755 -1.966755 1.966755
v 1.966755 -1.966755 -1.966755
v 1.966755 1.966755 1.966755
v 1.966755 1.966755 -1.966755
vt -0.004506 -0.005067
vt 1.002240 -0.005067
vt -0.004506 1.001679
vt 1.002240 1.001679
vn 1.000000 0.000000 0.000000
vn 1.000000 0.000000 0.000000
vn 1.000000 0.000000 0.000000
vn 1.000000 0.000000 0.000000
vn 1.000000 0.000000 0.000000
vn 1.000000 0.000000 0.000000
s off
g polySurface2 polySurface1
usemtl lambert12SG
f 1/1/1 2/2/2 3/3/3
f 3/3/4 2/2/5 4/4/6
