# This file uses centimeters as units for non-parametric coordinates.

mtllib LvlRt2.mtl
g default
v -2.000000 2.000000 -6.000000
v -2.000000 -2.000000 -6.000000
v -2.000000 -2.000000 -2.000000
v -2.000000 2.000000 -2.000000
v -2.205002 -2.000000 -6.000000
v -2.205002 -2.000000 -2.000000
v -2.205002 2.000000 -6.000000
v -2.205002 2.000000 -2.000000
vt -0.002344 -0.003140
vt 0.994408 -0.003140
vt -0.002344 0.991839
vt 0.994408 0.991839
vt -0.002344 -0.003140
vt 0.994408 -0.003140
vt -0.002344 0.991839
vt 0.994408 0.991839
vt -0.002344 -0.003140
vt 0.994408 -0.003140
vt -0.002344 0.991839
vt 0.994408 0.991839
vn -1.000000 0.000000 0.000000
vn -1.000000 0.000000 0.000000
vn -1.000000 0.000000 0.000000
vn -1.000000 0.000000 0.000000
vn 1.000000 0.000000 0.000000
vn 1.000000 0.000000 0.000000
vn 1.000000 0.000000 0.000000
vn 1.000000 0.000000 0.000000
vn 0.000000 -1.000000 0.000000
vn 0.000000 -1.000000 0.000000
vn 0.000000 -1.000000 0.000000
vn 0.000000 -1.000000 0.000000
vn 0.000000 0.000000 -1.000000
vn 0.000000 0.000000 -1.000000
vn 0.000000 0.000000 -1.000000
vn 0.000000 0.000000 -1.000000
vn 0.000000 0.000000 1.000000
vn 0.000000 0.000000 1.000000
vn 0.000000 0.000000 1.000000
vn 0.000000 0.000000 1.000000
vn 0.000000 1.000000 0.000000
vn 0.000000 1.000000 0.000000
vn 0.000000 1.000000 0.000000
vn 0.000000 1.000000 0.000000
s 1
g polySurface4 polySurface1 pCube2
usemtl lambert5SG
f 5/9/1 6/10/2 7/11/3
f 7/11/3 6/10/2 8/12/4
s 2
f 2/5/5 1/7/6 3/6/7
f 1/7/6 4/8/8 3/6/7
s off
f 2/1/9 3/2/10 6/10/11 5/9/12
f 1/3/13 2/1/14 5/9/15 7/11/16
f 3/2/17 4/4/18 8/12/19 6/10/20
f 4/4/21 1/3/22 7/11/23 8/12/24
