# This file uses centimeters as units for non-parametric coordinates.

mtllib LvlRt.mtl
g default
v -1.966755 1.966755 1.966755
v -1.966755 -1.966755 -1.966755
v -1.966755 -1.966755 1.966755
v -1.966755 1.966755 -1.966755
vt -0.004501 0.000000
vt 0.995242 0.000000
vt 0.002315 0.986111
vt 0.995242 0.986111
vn -1.000000 0.000000 0.000000
vn -1.000000 0.000000 0.000000
vn -1.000000 0.000000 0.000000
vn -1.000000 0.000000 0.000000
vn -1.000000 0.000000 0.000000
vn -1.000000 0.000000 0.000000
s off
g polySurface8 polySurface7 polySurface5 polySurface3 polySurface1
usemtl lambert9SG
f 2/1/1 3/2/2 4/3/3
f 4/3/4 3/2/5 1/4/6
