# This file uses centimeters as units for non-parametric coordinates.

mtllib LvlTop.mtl
g default
v 1.966755 1.966755 1.966755
v -1.966755 1.966755 -1.966755
v -1.966755 1.966755 1.966755
v 1.966755 1.966755 -1.966755
vt 0.000129 0.004744
vt 0.986240 0.004744
vt 0.006944 0.983925
vt 0.986240 0.990741
vn 0.000000 1.000000 0.000000
vn 0.000000 1.000000 0.000000
vn 0.000000 1.000000 0.000000
vn 0.000000 1.000000 0.000000
vn 0.000000 1.000000 0.000000
vn 0.000000 1.000000 0.000000
s off
g polySurface6 polySurface5 polySurface3 polySurface1
usemtl lambert8SG
f 3/1/1 1/2/2 2/3/3
f 2/3/4 1/2/5 4/4/6
