# This file uses centimeters as units for non-parametric coordinates.

mtllib test.mtl
g default
v -0.250000 -0.250000 -0.250000
v 0.250000 -0.250000 -0.250000
v -0.250000 -0.250000 0.250000
v 0.250000 -0.250000 0.250000
v -0.250000 0.250000 0.250000
v 0.250000 0.250000 0.250000
v -0.250000 0.250000 -0.250000
v 0.250000 0.250000 -0.250000
vt -0.249968 0.000000
vt 1.250032 0.000000
vt 0.750032 0.000000
vt 0.250032 0.000000
vt 0.750032 1.000000
vt 0.250032 1.000000
vt -0.249968 1.000000
vt 1.750032 1.000000
vt 2.250032 1.000000
vt 2.750032 1.000000
vt 1.250032 1.000000
vt 1.750032 0.000000
vn 0.000000 -1.000000 0.000000
vn 0.000000 -1.000000 0.000000
vn 0.000000 -1.000000 0.000000
vn 0.000000 -1.000000 0.000000
vn 0.000000 0.000000 1.000000
vn 0.000000 0.000000 1.000000
vn 0.000000 0.000000 1.000000
vn 0.000000 0.000000 1.000000
vn 0.000000 1.000000 0.000000
vn 0.000000 1.000000 0.000000
vn 0.000000 1.000000 0.000000
vn 0.000000 1.000000 0.000000
vn 0.000000 0.000000 -1.000000
vn 0.000000 0.000000 -1.000000
vn 0.000000 0.000000 -1.000000
vn 0.000000 0.000000 -1.000000
vn 1.000000 0.000000 0.000000
vn 1.000000 0.000000 0.000000
vn 1.000000 0.000000 0.000000
vn 1.000000 0.000000 0.000000
vn -1.000000 0.000000 0.000000
vn -1.000000 0.000000 0.000000
vn -1.000000 0.000000 0.000000
vn -1.000000 0.000000 0.000000
s 1
g pCube1
usemtl initialShadingGroup
f 1/12/1 2/2/2 3/4/3
f 3/4/3 2/2/2 4/3/4
s 2
f 3/4/5 4/3/6 5/6/7
f 5/6/7 4/3/6 6/5/8
s 3
f 5/9/9 6/10/10 7/8/11
f 7/8/11 6/10/10 8/11/12
s 4
f 7/8/13 8/11/14 1/12/15
f 1/12/15 8/11/14 2/2/16
s 5
f 2/2/17 8/11/18 4/3/19
f 4/3/19 8/11/18 6/5/20
s 6
f 7/7/21 1/1/22 5/6/23
f 5/6/23 1/1/22 3/4/24
